<mxfile host="app.diagrams.net" modified="2022-02-13T15:33:28.748Z" agent="5.0 (Macintosh; Intel Mac OS X 10_15_7) AppleWebKit/537.36 (KHTML, like Gecko) Chrome/97.0.4692.99 Safari/537.36" etag="rcyFJyP9g_cT5w-MrrVm" version="15.5.8" type="github">
  <diagram id="RbfFEthhMG6fSUOupFot" name="第 1 页">
    <mxGraphModel dx="815" dy="461" grid="1" gridSize="10" guides="1" tooltips="1" connect="1" arrows="1" fold="1" page="1" pageScale="1" pageWidth="827" pageHeight="1169" math="0" shadow="0">
      <root>
        <mxCell id="0" />
        <mxCell id="1" parent="0" />
      </root>
    </mxGraphModel>
  </diagram>
</mxfile>
